HIERARCHY
ROOT Hips
{
	OFFSET 0.00000 0.00000 0.00000
	CHANNELS 6 Xposition Yposition Zposition Zrotation Yrotation Xrotation 
	JOINT LHipJoint
	{
		OFFSET 0 0 0
		CHANNELS 3 Zrotation Yrotation Xrotation
		JOINT LeftHip
		{
			OFFSET 1.59715 -1.91394 0.36268
			CHANNELS 3 Zrotation Yrotation Xrotation
			JOINT LeftKnee
			{
				OFFSET 2.53886 -6.97546 0.00000
				CHANNELS 3 Zrotation Yrotation Xrotation
				JOINT LeftAnkle
				{
					OFFSET 2.77084 -7.61284 0.00000
					CHANNELS 3 Zrotation Yrotation Xrotation
					JOINT LeftToe
					{
						OFFSET 0.19855 -0.54550 2.06057
						CHANNELS 3 Zrotation Yrotation Xrotation
						End Site
						{
							OFFSET 0.00000 -0.00000 1.07182
						}
					}
				}
			}
		}
	}
	JOINT RHipJoint
	{
		OFFSET 0 0 0
		CHANNELS 3 Zrotation Yrotation Xrotation
		JOINT RightHip
		{
			OFFSET -1.71086 -1.91394 0.36268
			CHANNELS 3 Zrotation Yrotation Xrotation
			JOINT RightKnee
			{
				OFFSET -2.59448 -7.12828 0.00000
				CHANNELS 3 Zrotation Yrotation Xrotation
				JOINT RightAnkle
				{
					OFFSET -2.80237 -7.69945 0.00000
					CHANNELS 3 Zrotation Yrotation Xrotation
					JOINT RightToe
					{
						OFFSET -0.18280 -0.50224 2.06614
						CHANNELS 3 Zrotation Yrotation Xrotation
						End Site
						{
							OFFSET -0.00000 -0.00000 1.07055
						}
					}
				}
			}
		}
	}
	JOINT lowerback
	{
		OFFSET 0 0 0
		CHANNELS 3 Zrotation Yrotation Xrotation
		JOINT Chest
		{
			OFFSET 0.04838 1.91536 -0.09733
			CHANNELS 3 Zrotation Yrotation Xrotation
			JOINT Chest2
			{
				OFFSET 0.04097 1.92183 -0.02751
				CHANNELS 3 Zrotation Yrotation Xrotation
				JOINT lowerneck
				{
					OFFSET 0 0 0
					CHANNELS 3 Zrotation Yrotation Xrotation
					JOINT Neck
					{
						OFFSET 0.18766 3.12816 0.13727
						CHANNELS 3 Zrotation Yrotation Xrotation
						JOINT Head
						{
							OFFSET -0.11178 3.16074 0.02732
							CHANNELS 3 Zrotation Yrotation Xrotation
							End Site
							{
								OFFSET 0.47685 1.04189 0.57898
							}
						}
					}
				}
				JOINT LeftCollar
				{
					OFFSET 0 0 0
					CHANNELS 3 Zrotation Yrotation Xrotation
					JOINT LeftShoulder
					{
						OFFSET 3.49325 0.99827 -0.10681
CHANNELS 3 Zrotation Xrotation Yrotation
						JOINT LeftElbow
						{
OFFSET 0 -5.128420 0.000000
CHANNELS 3 Zrotation Xrotation Yrotation
							JOINT LeftWrist
							{
OFFSET 0 -3.473960 0.000000
CHANNELS 3 Zrotation Xrotation Yrotation
								JOINT lhand
								{
									OFFSET 0 0 0
CHANNELS 3 Zrotation Xrotation Yrotation
									JOINT LFingers
									{
OFFSET 0 -0.728610 0.000000
CHANNELS 3 Zrotation Xrotation Yrotation
										End Site
										{
OFFSET 0 -0.587420 0.000000
										}
									}
								}
								JOINT LThumb
								{
OFFSET 0 0.000000 0.000000
CHANNELS 3 Zrotation Xrotation Yrotation
									End Site
									{
OFFSET 0 -0.596390 0.596390
									}
								}
							}
						}
					}
				}
				JOINT RightCollar
				{
					OFFSET 0 0 0
					CHANNELS 3 Zrotation Yrotation Xrotation
					JOINT RightShoulder
					{
						OFFSET -3.23261 1.50670 -0.18692
CHANNELS 3 Zrotation Xrotation Yrotation
						JOINT RightElbow
						{
OFFSET 0 -5.484770 -0.000000
CHANNELS 3 Zrotation Xrotation Yrotation
							JOINT RightWrist
							{
OFFSET 0 -3.478560 0.000000
CHANNELS 3 Zrotation Xrotation Yrotation
								JOINT rhand
								{
									OFFSET 0 0 0
CHANNELS 3 Zrotation Xrotation Yrotation
									JOINT RFingers
									{
OFFSET 0 -0.709970 0.000000
CHANNELS 3 Zrotation Xrotation Yrotation
										End Site
										{
OFFSET 0 -0.572400 0.000000
										}
									}
								}
								JOINT RThumb
								{
OFFSET 0 0.000000 0.000000
CHANNELS 3 Zrotation Xrotation Yrotation
									End Site
									{
OFFSET 0 -0.581140 0.581140
									}
								}
							}
						}
					}
				}
			}
		}
	}
}
MOTION
Frames: 5
Frame Time: 0.008333333333333333
0.065930 18.167441 -3.850187 -3.946575 3.926006 1.591700 0.000000 0.000000 0.000000 -18.265076 -13.659969 -8.373132 2.659948 10.123059 29.376241 1.000630 1.755419 -19.607261 0.117252 2.206249 6.076080 0.000000 0.000000 0.000000 28.446400 11.139321 -10.304854 -3.126115 -10.896434 31.931347 -0.926062 -6.630342 -21.742903 -2.171648 -9.214744 26.469360 2.344887 -0.711951 0.829218 3.596020 -0.739264 -3.783901 2.437832 -0.378720 -4.354163 -3.894640 -2.644745 -10.881066 -3.109843 -2.217668 21.082614 -0.619077 -1.669462 8.366906 0.000000 0.000000 0.000000 51.573738 -42.713081 -4.246857 87.804445 -59.978458 58.098839 29.937872 21.597961 -22.006875 0.000000 0.000000 0.000000 -7.125000 0.000000 0.000000 1.184573 54.979764 -0.289176 0.000000 0.000000 0.000000 -69.313292 -48.812767 -6.879487 -85.416106 -59.913956 -56.031522 -21.341296 -18.865613 -10.768660 0.000000 0.000000 0.000000 7.125000 0.000000 0.000000 4.041431 18.455321 2.560403
0.065132 18.172199 -3.867642 -4.066727 4.094725 1.630890 0.000000 0.000000 0.000000 -18.113509 -13.842669 -8.430240 2.653004 10.110951 29.336723 0.993591 1.727774 -19.529021 0.122832 2.258995 6.221878 0.000000 0.000000 0.000000 28.569480 11.112154 -10.302750 -3.092847 -10.843848 31.755134 -0.922432 -6.632195 -21.711481 -2.266211 -9.399923 27.054409 2.283058 -0.793446 1.038055 3.638500 -0.853824 -3.447479 2.518906 -0.432846 -4.117460 -3.590082 -2.733643 -12.124216 -2.630062 -2.447659 20.963145 -0.551666 -1.709828 8.553177 0.000000 0.000000 0.000000 34.629816 -32.790401 -16.944877 90.404522 -59.999231 60.350346 28.286194 22.981369 -21.187106 0.000000 0.000000 0.000000 -7.125000 0.000000 0.000000 -0.396447 53.737322 0.085003 0.000000 0.000000 0.000000 -51.530335 -39.969181 8.160598 -95.846222 -59.869740 -65.060733 -22.092568 -15.079199 -11.471261 0.000000 0.000000 0.000000 7.125000 0.000000 0.000000 3.535504 17.640757 2.302229
0.066618 18.168094 -3.877482 -4.229853 4.197914 1.638601 0.000000 0.000000 0.000000 -17.909883 -13.942195 -8.537712 2.667998 10.137157 29.422006 0.999594 1.670683 -19.559950 0.123747 2.267724 6.246036 0.000000 0.000000 0.000000 28.732314 11.099608 -10.355470 -3.076408 -10.817778 31.667705 -0.907420 -6.780129 -21.681709 -2.236116 -9.341483 26.869515 2.305609 -0.914697 1.214564 3.718407 -1.025004 -2.982232 2.590648 -0.517503 -3.728327 -3.761299 -2.903401 -13.147393 -1.806272 -2.791381 20.219777 -0.292689 -1.792842 8.502815 0.000000 0.000000 0.000000 21.062237 -22.185065 -22.824043 82.483230 -59.782134 53.495210 24.956997 20.228875 -22.682221 0.000000 0.000000 0.000000 -7.125000 0.000000 0.000000 -4.318213 54.676893 1.029330 0.000000 0.000000 0.000000 -37.362654 -29.881895 18.545397 -95.705173 -59.876386 -64.938740 -21.984912 -12.602726 -12.542988 0.000000 0.000000 0.000000 7.125000 0.000000 0.000000 3.652512 16.505603 2.469339
0.067035 18.164806 -3.876219 -4.176196 4.225123 1.648832 0.000000 0.000000 0.000000 -17.963750 -13.958841 -8.555831 2.671447 10.143208 29.441675 1.005650 1.682219 -19.622330 0.118408 2.218002 6.108483 0.000000 0.000000 0.000000 28.674842 11.093555 -10.385047 -3.081957 -10.826594 31.697202 -0.907826 -6.773910 -21.680340 -2.247781 -9.364079 26.940996 2.335013 -0.974544 1.651937 3.582037 -1.101109 -2.685004 2.439671 -0.558479 -3.668111 -3.608511 -3.111172 -13.747347 -1.377880 -3.188411 19.438218 -0.220309 -1.916098 8.353701 0.000000 0.000000 0.000000 11.392457 -12.966697 -23.649944 67.623347 -58.011062 40.751728 20.055623 20.837559 -24.394817 0.000000 0.000000 0.000000 -7.125000 0.000000 0.000000 -10.094828 55.465534 2.612524 0.000000 0.000000 0.000000 -26.445768 -18.416972 24.063910 -88.721560 -59.987365 -58.892927 -21.108894 -11.836900 -10.963433 0.000000 0.000000 0.000000 7.125000 0.000000 0.000000 4.210778 18.267307 2.685670
0.064831 18.159634 -3.874504 -4.068272 4.099305 1.908287 0.000000 0.000000 0.000000 -18.018069 -13.967431 -8.855843 2.688067 10.172101 29.535736 1.013931 1.726630 -19.719186 0.114099 2.177826 5.997447 0.000000 0.000000 0.000000 28.492795 11.146220 -10.807009 -3.125842 -10.895962 31.929872 -0.908374 -6.682970 -21.620315 -2.103605 -9.078212 26.040550 2.122560 -1.051998 2.058713 3.595418 -1.202339 -2.481331 2.583086 -0.603124 -3.679671 -3.765328 -3.192692 -14.289757 -0.821832 -3.364630 18.468474 -0.028275 -1.943912 8.139473 0.000000 0.000000 0.000000 4.494972 -5.772363 -21.102814 54.167659 -54.536100 29.538794 13.142373 24.853860 -27.472358 0.000000 0.000000 0.000000 -7.125000 0.000000 0.000000 -18.880579 57.064695 5.722986 0.000000 0.000000 0.000000 -19.221519 -8.515307 26.922758 -75.192065 -59.144627 -47.213589 -21.456248 -12.557999 -9.973337 0.000000 0.000000 0.000000 7.125000 0.000000 0.000000 3.939796 19.293889 2.422401
